<?xml version="1.0" encoding="UTF-8"?>
<svg xmlns="http://www.w3.org/2000/svg" xmlns:xlink="http://www.w3.org/1999/xlink" width="50px" height="50px" viewBox="0 0 50 50" version="1.1">
<g id="surface1">
<path style=" stroke:none;fill-rule:nonzero;fill:rgb(0%,0%,0%);fill-opacity:1;" d="M 42.792969 9.757812 L 34.042969 1.003906 C 33.570312 0.535156 32.945312 0.273438 32.277344 0.273438 L 8.914062 0.273438 C 7.539062 0.273438 6.417969 1.394531 6.417969 2.769531 L 6.417969 47.171875 C 6.417969 48.550781 7.539062 49.667969 8.914062 49.667969 L 41.03125 49.667969 C 42.40625 49.667969 43.527344 48.550781 43.527344 47.171875 L 43.527344 11.523438 C 43.527344 10.855469 43.265625 10.230469 42.792969 9.757812 Z M 33.792969 3.085938 L 40.714844 10.007812 L 34.496094 10.007812 C 34.109375 10.007812 33.792969 9.691406 33.792969 9.304688 Z M 8.914062 1.921875 L 32.148438 1.921875 L 32.148438 9.304688 C 32.148438 10.601562 33.199219 11.652344 34.496094 11.652344 L 41.878906 11.652344 L 41.878906 29.875 L 8.066406 29.875 L 8.066406 2.769531 C 8.066406 2.300781 8.445312 1.921875 8.914062 1.921875 Z M 41.03125 48.023438 L 8.914062 48.023438 C 8.445312 48.023438 8.066406 47.640625 8.066406 47.171875 L 8.066406 31.523438 L 41.878906 31.523438 L 41.878906 47.171875 C 41.878906 47.640625 41.5 48.023438 41.03125 48.023438 Z M 41.03125 48.023438 "/>
<path style=" stroke:none;fill-rule:nonzero;fill:rgb(0%,0%,0%);fill-opacity:1;" d="M 18.664062 45.453125 L 15.398438 45.453125 C 14.085938 45.453125 13.019531 44.386719 13.019531 43.074219 L 13.019531 37.074219 C 13.019531 35.761719 14.085938 34.695312 15.398438 34.695312 L 18.664062 34.695312 C 19.117188 34.695312 19.488281 35.066406 19.488281 35.519531 C 19.488281 35.972656 19.117188 36.34375 18.664062 36.34375 L 15.398438 36.34375 C 14.996094 36.34375 14.667969 36.671875 14.667969 37.074219 L 14.667969 43.074219 C 14.667969 43.476562 14.996094 43.808594 15.398438 43.808594 L 18.664062 43.808594 C 19.117188 43.808594 19.488281 44.175781 19.488281 44.628906 C 19.488281 45.085938 19.117188 45.453125 18.664062 45.453125 Z M 18.664062 45.453125 "/>
<path style=" stroke:none;fill-rule:nonzero;fill:rgb(0%,0%,0%);fill-opacity:1;" d="M 25.976562 45.453125 L 22.5 45.453125 C 22.042969 45.453125 21.675781 45.085938 21.675781 44.628906 C 21.675781 44.175781 22.042969 43.808594 22.5 43.808594 L 25.976562 43.808594 C 26.261719 43.808594 26.496094 43.574219 26.496094 43.285156 L 26.496094 41.417969 C 26.496094 41.132812 26.261719 40.898438 25.976562 40.898438 L 23.84375 40.898438 C 22.648438 40.898438 21.675781 39.925781 21.675781 38.730469 L 21.675781 36.863281 C 21.675781 35.667969 22.648438 34.695312 23.84375 34.695312 L 26.210938 34.695312 C 26.664062 34.695312 27.035156 35.066406 27.035156 35.519531 C 27.035156 35.976562 26.664062 36.34375 26.210938 36.34375 L 23.84375 36.34375 C 23.554688 36.34375 23.324219 36.578125 23.324219 36.863281 L 23.324219 38.730469 C 23.324219 39.019531 23.554688 39.25 23.84375 39.25 L 25.976562 39.25 C 27.171875 39.25 28.140625 40.222656 28.140625 41.417969 L 28.140625 43.285156 C 28.140625 44.480469 27.171875 45.453125 25.976562 45.453125 Z M 25.976562 45.453125 "/>
<path style=" stroke:none;fill-rule:nonzero;fill:rgb(0%,0%,0%);fill-opacity:1;" d="M 34.757812 45.453125 L 31.28125 45.453125 C 30.828125 45.453125 30.457031 45.085938 30.457031 44.628906 C 30.457031 44.175781 30.828125 43.808594 31.28125 43.808594 L 34.757812 43.808594 C 35.042969 43.808594 35.277344 43.574219 35.277344 43.285156 L 35.277344 41.417969 C 35.277344 41.132812 35.042969 40.898438 34.757812 40.898438 L 32.625 40.898438 C 31.429688 40.898438 30.457031 39.925781 30.457031 38.730469 L 30.457031 36.863281 C 30.457031 35.667969 31.429688 34.695312 32.625 34.695312 L 34.992188 34.695312 C 35.445312 34.695312 35.816406 35.066406 35.816406 35.519531 C 35.816406 35.976562 35.445312 36.34375 34.992188 36.34375 L 32.625 36.34375 C 32.335938 36.34375 32.105469 36.578125 32.105469 36.863281 L 32.105469 38.730469 C 32.105469 39.019531 32.335938 39.25 32.625 39.25 L 34.757812 39.25 C 35.953125 39.25 36.921875 40.222656 36.921875 41.417969 L 36.921875 43.285156 C 36.921875 44.480469 35.953125 45.453125 34.757812 45.453125 Z M 34.757812 45.453125 "/>
</g>
</svg>
