<?xml version="1.0" encoding="UTF-8"?>
<svg xmlns="http://www.w3.org/2000/svg" xmlns:xlink="http://www.w3.org/1999/xlink" width="50px" height="50px" viewBox="0 0 50 50" version="1.1">
<g id="surface1">
<path style=" stroke:none;fill-rule:nonzero;fill:rgb(0%,0%,0%);fill-opacity:1;" d="M 42.792969 9.757812 L 34.042969 1.003906 C 33.570312 0.535156 32.945312 0.273438 32.277344 0.273438 L 8.914062 0.273438 C 7.539062 0.273438 6.417969 1.394531 6.417969 2.769531 L 6.417969 47.171875 C 6.417969 48.550781 7.539062 49.667969 8.914062 49.667969 L 41.03125 49.667969 C 42.40625 49.667969 43.527344 48.550781 43.527344 47.171875 L 43.527344 11.523438 C 43.527344 10.855469 43.265625 10.230469 42.792969 9.757812 Z M 33.792969 3.085938 L 40.714844 10.007812 L 34.496094 10.007812 C 34.109375 10.007812 33.792969 9.691406 33.792969 9.304688 Z M 8.914062 1.921875 L 32.148438 1.921875 L 32.148438 9.304688 C 32.148438 10.601562 33.199219 11.652344 34.496094 11.652344 L 41.878906 11.652344 L 41.878906 29.875 L 8.066406 29.875 L 8.066406 2.769531 C 8.066406 2.300781 8.445312 1.921875 8.914062 1.921875 Z M 41.03125 48.023438 L 8.914062 48.023438 C 8.445312 48.023438 8.066406 47.640625 8.066406 47.171875 L 8.066406 31.523438 L 41.878906 31.523438 L 41.878906 47.171875 C 41.878906 47.640625 41.5 48.023438 41.03125 48.023438 Z M 41.03125 48.023438 "/>
<path style=" stroke:none;fill-rule:nonzero;fill:rgb(0%,0%,0%);fill-opacity:1;" d="M 38.855469 44.445312 L 36.078125 44.445312 C 34.894531 44.445312 33.933594 43.484375 33.933594 42.296875 L 33.933594 35.867188 C 33.933594 35.414062 34.300781 35.046875 34.753906 35.046875 C 35.210938 35.046875 35.578125 35.414062 35.578125 35.867188 L 35.578125 42.296875 C 35.578125 42.574219 35.804688 42.800781 36.078125 42.800781 L 38.855469 42.800781 C 39.3125 42.800781 39.679688 43.167969 39.679688 43.625 C 39.679688 44.078125 39.3125 44.445312 38.855469 44.445312 Z M 38.855469 44.445312 "/>
<path style=" stroke:none;fill-rule:nonzero;fill:rgb(0%,0%,0%);fill-opacity:1;" d="M 15.1875 35.046875 C 14.734375 35.046875 14.367188 35.414062 14.367188 35.867188 L 14.367188 38.921875 L 11.910156 38.921875 L 11.910156 35.867188 C 11.910156 35.414062 11.542969 35.046875 11.085938 35.046875 C 10.632812 35.046875 10.261719 35.414062 10.261719 35.867188 L 10.261719 43.625 C 10.261719 44.078125 10.632812 44.445312 11.085938 44.445312 C 11.542969 44.445312 11.910156 44.078125 11.910156 43.625 L 11.910156 40.570312 L 14.367188 40.570312 L 14.367188 43.625 C 14.367188 44.078125 14.734375 44.445312 15.1875 44.445312 C 15.644531 44.445312 16.011719 44.078125 16.011719 43.625 L 16.011719 35.867188 C 16.011719 35.414062 15.644531 35.046875 15.1875 35.046875 Z M 15.1875 35.046875 "/>
<path style=" stroke:none;fill-rule:nonzero;fill:rgb(0%,0%,0%);fill-opacity:1;" d="M 22.328125 35.046875 L 18.226562 35.046875 C 17.769531 35.046875 17.402344 35.414062 17.402344 35.867188 C 17.402344 36.324219 17.769531 36.691406 18.226562 36.691406 L 19.453125 36.691406 L 19.453125 43.625 C 19.453125 44.078125 19.820312 44.445312 20.277344 44.445312 C 20.730469 44.445312 21.101562 44.078125 21.101562 43.625 L 21.101562 36.691406 L 22.328125 36.691406 C 22.78125 36.691406 23.152344 36.324219 23.152344 35.867188 C 23.152344 35.414062 22.78125 35.046875 22.328125 35.046875 Z M 22.328125 35.046875 "/>
<path style=" stroke:none;fill-rule:nonzero;fill:rgb(0%,0%,0%);fill-opacity:1;" d="M 31.5 35.089844 C 31.167969 34.976562 30.800781 35.085938 30.582031 35.359375 L 28.390625 38.152344 L 26.199219 35.359375 C 25.980469 35.085938 25.613281 34.976562 25.28125 35.089844 C 24.949219 35.207031 24.726562 35.519531 24.726562 35.871094 L 24.726562 43.625 C 24.726562 44.078125 25.097656 44.445312 25.550781 44.445312 C 26.007812 44.445312 26.375 44.078125 26.375 43.625 L 26.375 38.25 L 27.742188 39.996094 C 27.746094 40 27.75 40 27.753906 40.003906 C 27.769531 40.027344 27.789062 40.046875 27.8125 40.066406 C 27.832031 40.085938 27.851562 40.105469 27.871094 40.125 C 27.875 40.125 27.878906 40.128906 27.882812 40.132812 C 27.898438 40.144531 27.914062 40.152344 27.929688 40.164062 C 27.957031 40.179688 27.980469 40.199219 28.007812 40.214844 C 28.03125 40.226562 28.054688 40.234375 28.078125 40.246094 C 28.105469 40.253906 28.128906 40.265625 28.15625 40.273438 C 28.183594 40.28125 28.207031 40.285156 28.234375 40.289062 C 28.261719 40.296875 28.285156 40.300781 28.308594 40.304688 C 28.335938 40.308594 28.363281 40.304688 28.390625 40.304688 C 28.414062 40.304688 28.441406 40.304688 28.46875 40.304688 C 28.496094 40.300781 28.519531 40.296875 28.542969 40.292969 C 28.570312 40.285156 28.597656 40.28125 28.625 40.273438 C 28.648438 40.265625 28.675781 40.253906 28.699219 40.246094 C 28.722656 40.234375 28.746094 40.226562 28.773438 40.214844 C 28.800781 40.199219 28.824219 40.183594 28.851562 40.164062 C 28.867188 40.152344 28.882812 40.144531 28.898438 40.132812 C 28.902344 40.132812 28.90625 40.128906 28.90625 40.125 C 28.929688 40.105469 28.949219 40.085938 28.96875 40.066406 C 28.988281 40.046875 29.011719 40.027344 29.027344 40.003906 C 29.03125 40 29.035156 40 29.039062 39.996094 L 30.40625 38.253906 L 30.40625 43.625 C 30.40625 44.078125 30.773438 44.449219 31.230469 44.449219 C 31.683594 44.449219 32.050781 44.078125 32.050781 43.625 L 32.050781 35.867188 C 32.050781 35.519531 31.828125 35.207031 31.5 35.089844 Z M 31.5 35.089844 "/>
</g>
</svg>
